<svg id="Layer_1" viewBox="0 0 512 512" xmlns="http://www.w3.org/2000/svg" data-name="Layer 1"><path d="m331.5 142.241 11.65-9.493-136.503-107.012-144.86 84.721 8.9 2.383 39.335-22.24a4.742 4.742 0 0 1 3.422-.61l25.963 5.224 59.493-35.825a4.75 4.75 0 0 1 5.582.185zm56.49 64.442 80.852 31.5v-30.748l-80.852-44.464zm80.852 41.728v10.589l-80.852-30.147v-11.94l80.852 31.5zm-90.411-32.011-31.639 9.758v10.942l31.639-8.6zm-31.639-.219 31.639-9.759v-44.067l-31.639 14.593v39.231zm-106.186-86.973v39.181l-12.45-6.6v-39.184l12.45 6.6zm-14.706-18.598 21.711 11.514a4.769 4.769 0 0 1 2.548 4.221h.01v49.979a4.777 4.777 0 0 1 -7.3 4.061l-21.711-11.514a4.767 4.767 0 0 1 -2.548-4.221h-.011v-49.979a4.787 4.787 0 0 1 7.305-4.061zm14.707 98.309-12.45-6.6v39.181l12.45 6.6zm-14.707-18.6 21.711 11.514a4.769 4.769 0 0 1 2.548 4.22h.01v49.98a4.776 4.776 0 0 1 -7.3 4.06l-21.711-11.513a4.767 4.767 0 0 1 -2.548-4.221h-.011v-49.977a4.787 4.787 0 0 1 7.305-4.061zm14.707 94.33-12.45-4.011v39.965l12.45 4.011v-39.963zm-15.4-14.976 21.638 6.971a4.768 4.768 0 0 1 3.31 4.538h.014v49.979a4.772 4.772 0 0 1 -6.611 4.418l-21.638-6.971a4.769 4.769 0 0 1 -3.311-4.538h-.014v-49.977a4.786 4.786 0 0 1 6.612-4.418zm179.135-10.973a4.77 4.77 0 0 0 -5.962 4.613h-.014v33.413a4.782 4.782 0 0 0 3.953 4.709l14.419 3.784a4.769 4.769 0 0 0 5.962-4.612h.014v-33.413a4.782 4.782 0 0 0 -3.953-4.709zm8.811 12.166v23.559l-5.226-1.371v-23.554l5.226 1.371zm-8.811 62.967 14.419 3.784a4.783 4.783 0 0 1 3.953 4.71v33.412h-.014a4.769 4.769 0 0 1 -5.962 4.613l-14.419-3.784a4.782 4.782 0 0 1 -3.953-4.709v-33.413h.014a4.769 4.769 0 0 1 5.962-4.613zm8.811 12.167-5.226-1.371v23.56l5.226 1.371zm-295.353 5-.516-250.514 18.236 3.669v253.2l-17.72-6.358zm-41.21-1.4-.512-228.873 31.687-17.912.507 246.785zm103.986 12.36v100.146h16.206v-102.967zm-5.863-8.671-29.631 5.158v-255.5l51.7-31.135v277.635l-21.556 3.753a4.58 4.58 0 0 0 -.513.089zm31.631 109.105 31.469 1.886v-104.013l-31.469-4.952zm67.388-23.272v-73.2l-26.357-4.148v79.183l26.357-1.832zm5.1-82.042-72.49-11.407v-273.516l130.888 85.183v208.93l-57.547-9.056a4.833 4.833 0 0 0 -.849-.134zm24.092 80.013v-66.58l-19.632-3.089v71.033zm9.562-65.075v64.41l24.742-1.719v-58.8l-24.742-3.893zm-65.113 92.63 89.855.971v-21.342l-89.855 6.245zm141.588-24.4a16.751 16.751 0 0 0 -5.54 9.275h-.011a4.766 4.766 0 0 1 -4.21 3.737c-12.874 1.232-18.977 18.239-9.457 28.239a15 15 0 0 0 10.873 4.766h99.874c13.7 0 20.8-17.862 10.873-28.293a15 15 0 0 0 -10.873-4.766h-2.385v-.018a4.764 4.764 0 0 1 -4.65-3.735c-1.605-7.265-8.094-13.21-15.838-12.714a4.769 4.769 0 0 1 -5.015-3.785c-1.484-7.079-8.624-11.192-15.037-8.44v-.007a4.763 4.763 0 0 1 -5.88-1.823c-8.524-13.386-28.368-7.017-28.368 9.269a4.781 4.781 0 0 1 -4.78 4.781 14.852 14.852 0 0 0 -9.573 3.516zm-.97-10.659a24.13 24.13 0 0 1 6.115-2.012c3.489-21.418 29.416-29.3 43.389-13.006a20.534 20.534 0 0 1 23.31 12.729 24.055 24.055 0 0 1 8.04 2.282v-160.418l-80.852-30.146v190.572zm-13.012 14.742a25.7 25.7 0 0 0 -18.52 18.454l-9.669 1.865v-217.65l31.639-8.6v199.288a26.364 26.364 0 0 0 -3.45 6.644zm-335.129-17.358a16.687 16.687 0 0 0 -5.54 9.275h-.011a4.766 4.766 0 0 1 -4.21 3.737c-12.874 1.232-18.977 18.239-9.457 28.239a15 15 0 0 0 10.868 4.764h99.875c15.817 0 22.062-23.172 6.536-31.511-2.965-1.592-5.685-1.548-8.921-1.548v-.017a4.766 4.766 0 0 1 -4.65-3.736c-1.658-7.5-8.3-13.2-15.838-12.714a4.771 4.771 0 0 1 -5.016-3.785c-1.483-7.079-8.623-11.192-15.036-8.44v-.007a4.763 4.763 0 0 1 -5.88-1.823c-8.522-13.386-28.37-7.017-28.37 9.269a4.781 4.781 0 0 1 -4.78 4.781 14.858 14.858 0 0 0 -9.573 3.516zm105.232 7.671v-66.506l25.933-4.514v97.593l-14.66-2.529a26.483 26.483 0 0 0 -11.273-24.044zm-27.15-19.124-.112-54.4 17.7 6.35v63.258a23.949 23.949 0 0 0 -2.989-.33 25.692 25.692 0 0 0 -14.6-14.876zm-41.244-21.906-.077-34.458h31.681l.1 49.3a20.166 20.166 0 0 0 -20.008-7.156 24.9 24.9 0 0 0 -11.696-7.686z" fill-rule="evenodd"/></svg>