<svg id="Слой_1" enable-background="new 0 0 512 512" height="30" viewBox="0 0 512 512" width="30" xmlns="http://www.w3.org/2000/svg"><g><path d="m256 0c-141.163 0-256 114.837-256 256s114.837 256 256 256 256-114.837 256-256-114.837-256-256-256zm96.325 274.113-125.162 125.162c-5 4.988-11.55 7.487-18.1 7.487s-13.1-2.5-18.1-7.487c-10-10-10-26.212 0-36.212l107.062-107.063-107.062-107.05c-10-10-10-26.213 0-36.213 10-9.988 26.2-9.988 36.2 0l125.162 125.163c4.8 4.8 7.5 11.313 7.5 18.1 0 6.8-2.7 13.3-7.5 18.113z"/></g></svg>