<svg enable-background="new 0 0 512 512" height="512" viewBox="0 0 512 512" width="512" xmlns="http://www.w3.org/2000/svg"><g id="_x37_62_x2C__Apartment_x2C__building_x2C__house"><g><path d="m61 202.587v273.413h70v-45c0-2.762 2.239-5 5-5h140c2.762 0 5 2.238 5 5v45h80v-335-50-55h-182.41zm55 198.413h-20v-40h20zm0-50h-20v-40h20zm0-50h-20v-40h20zm0-50h-20v-40h20zm30 150h-20v-40h20zm0-50h-20v-40h20zm0-50h-20v-40h20zm0-50h-20v-40h20zm0-50h-20v-40h20zm30 200h-20v-40h20zm0-50h-20v-40h20zm0-50h-20v-40h20zm0-50h-20v-40h20zm0-50h-20v-40h20zm0-50h-20v-40h20zm130-90h20v40h-20zm0 50h20v40h-20zm0 50h20v40h-20zm0 50h20v40h-20zm0 50h20v40h-20zm0 50h20v40h-20zm0 50h20v40h-20zm-30-300h20v40h-20zm0 50h20v40h-20zm0 50h20v40h-20zm0 50h20v40h-20zm0 50h20v40h-20zm0 50h20v40h-20zm0 50h20v40h-20zm-30-300h20v40h-20zm0 50h20v40h-20zm0 50h20v40h-20zm0 50h20v40h-20zm0 50h20v40h-20zm0 50h20v40h-20zm0 50h20v40h-20zm-30-300h20v40h-20zm0 50h20v40h-20zm0 50h20v40h-20zm0 50h20v40h-20zm0 50h20v40h-20zm0 50h20v40h-20zm0 50h20v40h-20zm-30-300h20v40h-20zm0 50h20v40h-20zm0 50h20v40h-20zm0 50h20v40h-20zm0 50h20v40h-20zm0 50h20v40h-20zm0 50h20v40h-20z"/><path d="m141 436h130v40h-130z"/><path d="m70.726 113.746-7.612 68.506 91.341-129.401z"/><path d="m371 96h40v40h-40z"/><path d="m416 146h-45v330h80v-330zm-10 275h-20v-20h20zm0-30h-20v-20h20zm0-30h-20v-20h20zm0-30h-20v-20h20zm0-30h-20v-20h20zm0-30h-20v-20h20zm0-30h-20v-20h20zm0-30h-20v-20h20zm0-30h-20v-20h20zm30 240h-20v-20h20zm0-30h-20v-20h20zm0-30h-20v-20h20zm0-30h-20v-20h20zm0-30h-20v-20h20zm0-30h-20v-20h20zm0-30h-20v-20h20zm0-30h-20v-20h20zm0-30h-20v-20h20z"/></g></g></svg>