<?xml version="1.0" encoding="UTF-8"?>
<svg xmlns="http://www.w3.org/2000/svg" viewBox="0 0 64 64" width="512" height="512"><g id="_09-Family" data-name="09-Family"><path d="M52,34a5,5,0,1,1-5,5A5.00588,5.00588,0,0,1,52,34ZM30,44a5,5,0,1,0-5-5A5.00588,5.00588,0,0,0,30,44Zm27,2H47a5.93148,5.93148,0,0,1-1.56,4.02A5.9956,5.9956,0,0,1,51,56v6h6V55a1,1,0,0,1,2,0v7h2a1,1,0,0,0,1-1V51A5,5,0,0,0,57,46ZM35,46H25a5,5,0,0,0-5,5V61a1,1,0,0,0,1,1h2V55a1,1,0,0,1,2,0v7h6V56a5.9956,5.9956,0,0,1,5.56-5.98A5.93177,5.93177,0,0,1,35,46Zm10,6H37a3.99891,3.99891,0,0,0-4,4v6h2V57a1,1,0,0,1,2,0v5h8V57a1,1,0,0,1,2,0v5h2V56A3.99887,3.99887,0,0,0,45,52ZM35.73639,35H39V28H30v4A6.99317,6.99317,0,0,1,35.73639,35ZM46,24.14,27,9.27,8,24.13V44h5V27a1.003,1.003,0,0,1,1-1H24a1.003,1.003,0,0,1,1,1v7.11035a7.00311,7.00311,0,0,1,3-1.81555V27a1.003,1.003,0,0,1,1-1H40a1.003,1.003,0,0,1,1,1v9a1.003,1.003,0,0,1-1,1H36.7052a6.96628,6.96628,0,0,1-1.81555,7h.46167A5.97008,5.97008,0,0,1,46,42.72791v-.14484A6.92631,6.92631,0,0,1,46,35.413ZM23,44V28H15V44ZM26.38,7.21a1.02015,1.02015,0,0,1,1.24,0l21.1936,16.5846a1,1,0,0,0,1.40289-.17L51.79,21.62a1.03354,1.03354,0,0,0,.2-.74,1.00844,1.00844,0,0,0-.37-.67L29.4,2.83a3.99007,3.99007,0,0,0-4.8,0L2.38,20.21a1.00844,1.00844,0,0,0-.37.67,1.03354,1.03354,0,0,0,.2.74l1.57349,2.00457a1,1,0,0,0,1.40289.17ZM6,46a.99974.99974,0,0,0-1,1v2a.99974.99974,0,0,0,1,1H18.07983a6.98123,6.98123,0,0,1,2.03052-4ZM46,3a1.003,1.003,0,0,0-1-1H37a1.003,1.003,0,0,0-1,1V5.45l10,7.82ZM25,44h.11035c-.03863-.03778-.07257-.08014-.11035-.11884Zm12,2a4,4,0,1,0,4-4A4.00458,4.00458,0,0,0,37,46Z"/></g></svg>
