<svg id="Layer_1" viewBox="0 0 512 512" xmlns="http://www.w3.org/2000/svg" data-name="Layer 1"><path d="m225.04 16 203.823 117.671c4.979 2.876 6.701 9.303 3.827 14.282l-13.657 23.645c-2.875 4.979-9.3 6.705-14.276 3.829l-179.716-103.745-179.713 103.745c-4.979 2.876-11.404 1.15-14.278-3.829l-13.658-23.645c-2.874-4.979-1.153-11.406 3.827-14.282zm91.504 392.079c19.634 0 35.648-16.014 35.648-35.647s-16.014-35.651-35.648-35.651-35.649 16.014-35.649 35.651 16.014 35.647 35.649 35.647zm-69.637 53.103c0 19.23 31.177 34.818 69.637 34.818s69.637-15.588 69.637-34.818c0-24.048-20.958-41.14-43.834-48.721-15.701 10.16-35.904 10.16-51.605 0-22.877 7.581-43.834 24.673-43.834 48.721zm159.365-121.528c25.299 0 45.933-20.634 45.933-45.931s-20.634-45.937-45.933-45.937-45.934 20.634-45.934 45.937 20.634 45.931 45.934 45.931zm-179.456 0c25.299 0 45.933-20.634 45.933-45.931s-20.634-45.937-45.933-45.937-45.934 20.634-45.934 45.937 20.634 45.931 45.934 45.931zm170.68 113.074c-3.769-23.164-22.778-40.2-44.845-49.254 12.531-14.548 15.167-35.259 6.419-52.508 5.91-2.873 12.105-5.227 18.357-7.027 17.836 10.292 39.855 10.293 57.691 0 31.133 8.967 60.882 31.618 60.882 64.14 0 24.778-40.173 44.864-89.728 44.864-2.962 0-5.888-.074-8.776-.214zm-123.477-101.763c-8.748 17.249-6.111 37.96 6.419 52.508-22.068 9.054-41.076 26.09-44.845 49.254-2.888.14-5.814.214-8.776.214-49.556 0-89.728-20.085-89.728-44.864 0-32.523 29.749-55.173 60.882-64.14 17.836 10.292 39.855 10.293 57.691 0 6.252 1.801 12.447 4.154 18.357 7.027zm112.515-172.202-161.494-93.226-161.493 93.228v225.001c0 6.724 5.48 12.199 12.196 12.199h50.227c-.573-2.52-.882-5.149-.882-7.887 0-35.626 28.683-61.126 61.246-72.975-10.758-10.526-17.451-25.192-17.451-41.381 0-31.924 26.009-57.937 57.934-57.937s57.933 26.013 57.933 57.937c0 16.187-6.692 30.851-17.448 41.377 4.609 1.677 9.14 3.628 13.524 5.842 19.008-21.537 52.428-21.537 71.437 0 4.383-2.214 8.914-4.165 13.524-5.842-10.757-10.525-17.448-25.19-17.448-41.377 0-24.998 15.948-46.37 38.196-54.467v-60.492z" fill-rule="evenodd"/></svg>