<svg id="Layer_1" enable-background="new 0 0 512 512" height="512" viewBox="0 0 512 512" width="512" xmlns="http://www.w3.org/2000/svg"><path clip-rule="evenodd" d="m82.069 220.092v228.356c0 29.434 24.083 53.518 53.517 53.518h240.826c29.434 0 53.517-24.083 53.517-53.518v-.16h-276.113c-14.516 0-26.322-11.806-26.322-26.322v-132.108c0-14.516 11.806-26.322 26.322-26.322h276.114v-43.444l22.679 16.478c16.737 12.129 40.139 8.392 52.268-8.345s8.392-40.139-8.345-52.267l-217.922-158.331c-12.788-9.698-30.901-10.377-44.571-.471l-218.57 158.801c-16.737 12.129-20.474 35.53-8.345 52.267 12.129 16.738 35.53 20.474 52.267 8.345zm71.747 59.443h327.216c5.685 0 10.322 4.637 10.322 10.322v132.109c0 5.686-4.637 10.322-10.322 10.322h-327.216c-5.685 0-10.322-4.637-10.322-10.322v-132.108c0-5.685 4.637-10.323 10.322-10.323zm254.444 44.809c-4.56 0-8.258-3.697-8.258-8.258s3.698-8.258 8.258-8.258h46.543c4.561 0 8.258 3.697 8.258 8.258s-3.698 8.258-8.258 8.258h-15.013v71.394c0 4.561-3.697 8.258-8.258 8.258s-8.258-3.697-8.258-8.258v-71.394zm-67.814 71.395c0 4.561-3.697 8.258-8.258 8.258s-8.258-3.697-8.258-8.258v-79.652c0-4.561 3.697-8.258 8.258-8.258 3.141 0 5.871 1.753 7.268 4.334l31.018 53.082v-49.158c0-4.561 3.697-8.258 8.258-8.258s8.258 3.697 8.258 8.258v79.652c-.005 2.836-1.471 5.596-4.097 7.129-3.937 2.298-8.992.969-11.29-2.968l-31.156-53.319v49.158zm-37.786-8.259c4.56 0 8.258 3.697 8.258 8.258s-3.697 8.258-8.258 8.258h-46.543c-4.561 0-8.258-3.697-8.258-8.258v-79.652c0-4.561 3.697-8.258 8.258-8.258h46.543c4.56 0 8.258 3.697 8.258 8.258s-3.697 8.258-8.258 8.258h-38.285v23.31h28.637c4.561 0 8.258 3.698 8.258 8.258 0 4.561-3.697 8.258-8.258 8.258h-28.637v23.31zm-114.358 8.258c0 4.561-3.698 8.258-8.258 8.258-4.561 0-8.258-3.697-8.258-8.258v-79.652c0-4.561 3.697-8.258 8.258-8.258h36.895c4.933 0 9.411 2.012 12.653 5.253 3.241 3.242 5.254 7.72 5.254 12.653v20.529c0 4.933-2.013 9.411-5.254 12.653-3.076 3.075-7.265 5.044-11.899 5.238l16.024 27.423c2.298 3.937.969 8.992-2.968 11.29s-8.992.969-11.29-2.968l-20.879-35.729h-10.278zm0-71.394h28.637c.373 0 .72.159.975.415.256.256.415.602.415.976v20.529c0 .373-.159.72-.415.975-.256.256-.602.415-.975.415h-28.637z" fill-rule="evenodd"/></svg>